<svg width="24" height="25" viewBox="0 0 24 25" fill="none" xmlns="http://www.w3.org/2000/svg">
<path fill-rule="evenodd" clip-rule="evenodd" d="M21.1736 15.5336L21.9336 20.8136C21.9884 21.2201 21.8648 21.6305 21.5946 21.9391C21.3243 22.2477 20.9338 22.4244 20.5236 22.4236H20.3136L15.0336 21.6636C14.3179 21.5649 13.6541 21.2348 13.1436 20.7236L3.40356 10.9736C1.5087 9.01167 1.5358 5.89314 3.46447 3.96447C5.39314 2.0358 8.51167 2.0087 10.4736 3.90356L20.2336 13.6436C20.7448 14.1541 21.0749 14.8179 21.1736 15.5336ZM14.2536 19.6636C14.5301 19.9292 14.8773 20.1097 15.2536 20.1836L20.4636 20.8736L19.7336 15.7036C19.6597 15.3273 19.4792 14.9801 19.2136 14.7036L9.46356 4.96356C8.80662 4.28913 7.90506 3.90874 6.96356 3.90874C6.02206 3.90874 5.1205 4.28913 4.46356 4.96356C3.80464 5.61864 3.43414 6.50942 3.43414 7.43856C3.43414 8.3677 3.80464 9.25848 4.46356 9.91356L14.2536 19.6636Z" fill="#001F54"/>
<path d="M7.43356 6.87356C7.13805 6.5982 6.67755 6.60633 6.39194 6.89194C6.10633 7.17755 6.0982 7.63805 6.37356 7.93356L10.5836 12.1436C10.8764 12.436 11.3507 12.436 11.6436 12.1436C11.936 11.8507 11.936 11.3764 11.6436 11.0836L7.43356 6.87356Z" fill="#001F54"/>
</svg>
